<?xml version="1.0" standalone="no"?>
<!DOCTYPE svg PUBLIC "-//W3C//DTD SVG 20010904//EN"
 "http://www.w3.org/TR/2001/REC-SVG-20010904/DTD/svg10.dtd">
<svg version="1.0" xmlns="http://www.w3.org/2000/svg"
 width="1280.000000pt" height="1258.000000pt" viewBox="0 0 1280.000000 1258.000000"
 preserveAspectRatio="xMidYMid meet">
<metadata>
Created by potrace 1.15, written by Peter Selinger 2001-2017
</metadata>
<g transform="translate(0.000000,1258.000000) scale(0.100000,-0.100000)"
fill="#000000" stroke="none">
<path d="M4950 12275 c-722 -88 -1727 -452 -2225 -805 -44 -31 -120 -78 -170
-105 -439 -234 -1021 -760 -1393 -1259 -294 -395 -550 -864 -686 -1256 -138
-396 -188 -720 -188 -1210 0 -796 151 -1683 406 -2403 324 -909 957 -1777
2039 -2795 1103 -1037 2116 -1737 2847 -1967 344 -107 644 -150 1065 -149 345
0 550 18 1020 90 472 72 772 156 1145 320 780 344 1859 1176 2320 1788 47 62
138 169 202 237 554 586 750 1070 708 1748 -50 806 -299 1623 -627 2055 -172
226 -352 379 -833 711 -257 177 -332 233 -510 380 -74 61 -235 191 -358 288
-468 373 -669 545 -852 733 -224 230 -325 370 -544 758 -81 142 -183 320 -228
395 -45 75 -176 325 -291 556 -232 467 -286 568 -395 735 -100 154 -191 266
-303 375 -426 412 -1025 711 -1562 780 -143 18 -438 18 -587 0z"/>
</g>
</svg>
